<svg width="12" height="15" viewBox="0 0 12 15" fill="none" xmlns="http://www.w3.org/2000/svg">
<path d="M6.3012 8.47772L6.30588 8.45585C6.39651 8.08241 6.51057 7.61679 6.42151 7.19491C6.36213 6.8621 6.11682 6.73241 5.90745 6.72304C5.66057 6.7121 5.44026 6.85272 5.38557 7.05741C5.28245 7.43241 5.37463 7.94491 5.54338 8.59804C5.33088 9.10429 4.99182 9.84022 4.74338 10.2777C4.28088 10.5168 3.66057 10.8855 3.56838 11.3512C3.54963 11.4371 3.57151 11.5465 3.62307 11.6449C3.68088 11.7543 3.77307 11.8387 3.88088 11.8793C3.92776 11.8965 3.98401 11.9105 4.04963 11.9105C4.32463 11.9105 4.76995 11.6887 5.3637 10.6699C5.45432 10.6402 5.54807 10.609 5.6387 10.5777C6.0637 10.434 6.50432 10.284 6.90276 10.2168C7.34338 10.4527 7.84495 10.6043 8.18557 10.6043C8.52307 10.6043 8.65588 10.4043 8.70588 10.284C8.79338 10.073 8.7512 9.80741 8.60901 9.66522C8.40276 9.4621 7.9012 9.40897 7.11995 9.50585C6.73557 9.27147 6.48401 8.95272 6.3012 8.47772ZM4.58713 10.8512C4.36995 11.1668 4.20588 11.3246 4.11682 11.3933C4.22151 11.2012 4.4262 10.998 4.58713 10.8512ZM5.95588 7.17147C6.03713 7.31054 6.0262 7.73085 5.9637 7.94335C5.88713 7.63241 5.8762 7.19179 5.92151 7.14022C5.93401 7.14179 5.94495 7.15116 5.95588 7.17147ZM5.93088 9.05429C6.09807 9.34335 6.30901 9.59179 6.54182 9.77616C6.20432 9.85272 5.89651 9.97929 5.62151 10.0918C5.55588 10.1183 5.49182 10.1449 5.42932 10.1699C5.63713 9.79335 5.81057 9.36679 5.93088 9.05429ZM8.36213 10.0777C8.3637 10.0808 8.36526 10.0855 8.35588 10.0918H8.35276L8.34964 10.0965C8.33714 10.1043 8.20901 10.1793 7.65745 9.9621C8.29182 9.93241 8.36057 10.0762 8.36213 10.0777ZM11.3528 4.0121L7.99026 0.649599C7.89651 0.555849 7.76995 0.502724 7.63713 0.502724H0.999634C0.723071 0.502724 0.499634 0.726161 0.499634 1.00272V14.0027C0.499634 14.2793 0.723071 14.5027 0.999634 14.5027H10.9996C11.2762 14.5027 11.4996 14.2793 11.4996 14.0027V4.36679C11.4996 4.23397 11.4465 4.10585 11.3528 4.0121ZM10.3465 4.59647H7.40588V1.65585L10.3465 4.59647ZM10.3746 13.3777H1.62463V1.62772H6.34338V5.00272C6.34338 5.17677 6.41252 5.34369 6.5356 5.46676C6.65867 5.58983 6.82559 5.65897 6.99963 5.65897H10.3746V13.3777Z" fill="black" fill-opacity="0.45"/>
</svg>
