<svg width="12" height="15" viewBox="0 0 12 15" fill="none" xmlns="http://www.w3.org/2000/svg">
<path d="M6.64225 7.45741L5.42662 9.00741L4.78444 8.18866C4.77274 8.17372 4.7578 8.16164 4.74075 8.15333C4.72369 8.14502 4.70497 8.1407 4.686 8.1407C4.66703 8.1407 4.6483 8.14502 4.63125 8.15333C4.61419 8.16164 4.59925 8.17372 4.58756 8.18866L3.02819 10.1762C3.01376 10.1946 3.00481 10.2167 3.00235 10.24C2.9999 10.2632 3.00405 10.2867 3.01432 10.3078C3.02458 10.3288 3.04056 10.3465 3.06042 10.3589C3.08028 10.3712 3.10322 10.3778 3.12662 10.3777H8.87506C8.97975 10.3777 9.03756 10.2574 8.9735 10.1762L6.84069 7.45741C6.82884 7.44245 6.81376 7.43036 6.79658 7.42205C6.77939 7.41374 6.76055 7.40942 6.74147 7.40942C6.72238 7.40942 6.70354 7.41374 6.68636 7.42205C6.66918 7.43036 6.6541 7.44245 6.64225 7.45741ZM3.62506 6.40897C3.62506 6.57473 3.69091 6.73371 3.80812 6.85092C3.92533 6.96813 4.0843 7.03397 4.25006 7.03397C4.41582 7.03397 4.57479 6.96813 4.692 6.85092C4.80921 6.73371 4.87506 6.57473 4.87506 6.40897C4.87506 6.24321 4.80921 6.08424 4.692 5.96703C4.57479 5.84982 4.41582 5.78397 4.25006 5.78397C4.0843 5.78397 3.92533 5.84982 3.80812 5.96703C3.69091 6.08424 3.62506 6.24321 3.62506 6.40897ZM11.3532 4.0121L7.99069 0.649599C7.89694 0.555849 7.77037 0.502724 7.63756 0.502724H1.00006C0.723499 0.502724 0.500061 0.726161 0.500061 1.00272V14.0027C0.500061 14.2793 0.723499 14.5027 1.00006 14.5027H11.0001C11.2766 14.5027 11.5001 14.2793 11.5001 14.0027V4.36679C11.5001 4.23397 11.4469 4.10585 11.3532 4.0121ZM10.3469 4.59647H7.40631V1.65585L10.3469 4.59647ZM10.3751 13.3777H1.62506V1.62772H6.34381V5.00272C6.34381 5.17677 6.41295 5.34369 6.53602 5.46676C6.65909 5.58983 6.82601 5.65897 7.00006 5.65897H10.3751V13.3777Z" fill="black" fill-opacity="0.45"/>
</svg>
