<svg width="12" height="15" viewBox="0 0 12 15" fill="none" xmlns="http://www.w3.org/2000/svg">
<path d="M11.3528 4.01365L7.99026 0.649591C7.89651 0.555841 7.76838 0.502716 7.63557 0.502716H0.999634C0.723071 0.502716 0.499634 0.726154 0.499634 1.00272V14.0027C0.499634 14.2793 0.723071 14.5027 0.999634 14.5027H10.9996C11.2762 14.5027 11.4996 14.2793 11.4996 14.0027V4.36678C11.4996 4.23397 11.4465 4.1074 11.3528 4.01365ZM10.3465 4.59647H7.40588V1.65584L10.3465 4.59647ZM10.3746 13.3777H1.62463V1.62772H6.34338V5.00272C6.34338 5.17676 6.41252 5.34368 6.5356 5.46675C6.65867 5.58983 6.82559 5.65897 6.99963 5.65897H10.3746V13.3777ZM4.28088 8.08084C4.28088 8.16522 4.34963 8.22928 4.43401 8.22928H4.94026C5.02463 8.22928 5.09338 8.16365 5.09338 8.0824C5.09338 7.64178 5.49651 7.27615 5.99963 7.27615C6.50276 7.27615 6.90588 7.64178 6.90588 8.08084C6.90588 8.47615 6.57776 8.81834 6.13557 8.87615C5.83401 8.9199 5.59651 9.19334 5.59338 9.50272V10.0027C5.59338 10.0887 5.6637 10.159 5.74963 10.159H6.24963C6.33557 10.159 6.40588 10.0887 6.40588 10.0027V9.81209C6.40588 9.71834 6.46838 9.6324 6.55745 9.60428C7.25432 9.37928 7.72932 8.76053 7.71838 8.05897C7.70588 7.19178 6.94963 6.48397 6.02307 6.47147C5.0637 6.46053 4.28088 7.18397 4.28088 8.08084ZM5.49963 11.1277C5.49963 11.2603 5.55231 11.3875 5.64608 11.4813C5.73985 11.575 5.86703 11.6277 5.99963 11.6277C6.13224 11.6277 6.25942 11.575 6.35319 11.4813C6.44696 11.3875 6.49963 11.2603 6.49963 11.1277C6.49963 10.9951 6.44696 10.8679 6.35319 10.7742C6.25942 10.6804 6.13224 10.6277 5.99963 10.6277C5.86703 10.6277 5.73985 10.6804 5.64608 10.7742C5.55231 10.8679 5.49963 10.9951 5.49963 11.1277Z" fill="black" fill-opacity="0.45"/>
</svg>
